# xmcd CD database file
#
# Track frame offsets:
#	150
#	25534
#	43775
#	61178
#	77266
#	102353
#	119523
#	139587
#	157658
#	174345
#	189679
#	208275
#	226248
#
# Disc length: 3275 seconds
#
# Revision: 0
# Processed by: cddbd v1.5.1PL2 Copyright (c) Steve Scherf et al.
# Submitted via: CDex 1.51
#
DISCID=9e0cc90d
DTITLE=Maren Noel - Voice of hope
DYEAR=2005
DGENRE=Jazz
TTITLE0=Maren Noel - Fearful heart
TTITLE1=Maren Noel - Strong foundation
TTITLE2=Maren Noel - Christo
TTITLE3=Maren Noel - Voice of hope
TTITLE4=Maren Noel - Looking for love
TTITLE5=Maren Noel - Way from nowhere
TTITLE6=Maren Noel - Lies
TTITLE7=Maren Noel - Kyrie
TTITLE8=Maren Noel - Hope
TTITLE9=Maren Noel - Hear my prayer
TTITLE10=Maren Noel - Place of mystery
TTITLE11=Maren Noel - Dreaming
TTITLE12=Maren Noel - The promise
EXTD=YEAR: 2005
EXTT0=
EXTT1=
EXTT2=
EXTT3=
EXTT4=
EXTT5=
EXTT6=
EXTT7=
EXTT8=
EXTT9=
EXTT10=
EXTT11=
EXTT12=
PLAYORDER=
